<?xml version="1.0" encoding="iso-8859-1"?>
<!-- Generator: Adobe Illustrator 16.0.0, SVG Export Plug-In . SVG Version: 6.00 Build 0)  -->
<!DOCTYPE svg PUBLIC "-//W3C//DTD SVG 1.1//EN" "http://www.w3.org/Graphics/SVG/1.1/DTD/svg11.dtd">
<svg version="1.1" id="Capa_1" xmlns="http://www.w3.org/2000/svg" xmlns:xlink="http://www.w3.org/1999/xlink" x="0px" y="0px"
	 width="950.001px" height="950.001px" viewBox="0 0 950.001 950.001" style="enable-background:new 0 0 950.001 950.001;"
	 xml:space="preserve">
<g>
	<path d="M97.96,525.152c15.452,203.891,186.558,424.849,377.056,424.849c190.543,0,361.649-220.958,377.011-424.849
		c9.989-131.284-46.628-220.44-140.062-271.815c35.595-30.553,66.702-66.721,80.655-83.699c4.372-5.32,2.354-10.907-4.396-12.268
		c-39.749-8.012-166.491-31.186-228.326-14.604c-31.713,8.513-48.912,20.782-57.246,35.299
		c-1.297-31.134-6.179-74.02-23.199-112.543c-16.24-36.645-28.512-53.579-36.388-61.404c-4.885-4.853-15.573-4.934-22.097-2.728
		l-69.683,23.568c-6.522,2.206-6.88,6.636-1.195,10.52c22.261,15.207,72.626,58.1,82.958,140.188
		c-8.871-13.48-25.892-24.86-55.902-32.9c-61.836-16.582-188.578,6.592-228.327,14.604c-6.75,1.36-8.762,6.944-4.384,12.259
		c14.601,17.728,47.952,56.4,85.525,87.739C141.318,309.46,88.329,397.566,97.96,525.152z M188.194,438.437
		c8.82-23.672,21.091-44.972,37.081-62.975c52.137-2.688,130.693-9.903,175.845-28.983c22.75,26.819,52.97,48.349,68.731,58.656
		c5.763,3.77,15.125,3.402,20.542-0.847c12.677-9.941,35.233-29.218,54.729-54.181c50.706,18.053,132.671,24.034,180.598,25.979
		c15.591,17.805,27.198,38.771,35.931,62.039C745.259,443.075,733,457.697,733,475.681v39.867c0,22.011,17.963,39.863,39.956,39.863
		c0.537,0,0.97-0.289,1.465-0.289c-1.972,18.677-5.266,37.468-10.19,56.145c-7.303-9.499-18.295-16.012-31.191-16.012
		c-21.993,0-40.038,17.847-40.038,39.863v39.862c0,18.187,12.556,32.9,29.219,37.671c-11.241,19.686-24.111,38.119-38.128,55.566
		c-7.348-8.04-18.285-13.531-30.871-13.531c-21.992,0-40.22,15.792-40.22,35.3v35.271c0,3.426,1.535,6.563,2.567,9.696
		c-42.557,31.198-90.434,50.214-140.599,50.214c-37.538,0-73.772-10.641-107.59-29.047c4.256-6.316,7.621-13.531,7.621-21.704
		v-39.863c0-22.016-17.964-39.867-40.002-39.867c-22.035,0-39.998,17.852-39.998,39.867v6.674
		C230,736.995,184.79,644.588,175.43,555.386c21.991-0.062,39.57-17.868,39.57-39.838v-39.867
		C215,458.28,203.733,443.881,188.194,438.437z"/>
	<path d="M284.021,714.824c22.038,0,39.979-17.828,39.979-39.845v-39.862c0-22.017-17.94-39.863-39.979-39.863
		c-21.994,0-40.021,17.847-40.021,39.863v39.862C244,696.996,262.026,714.824,284.021,714.824z"/>
	<path d="M341.998,555.41c22.039,0,40.002-17.852,40.002-39.863v-39.866c0-22.015-17.964-39.862-40.002-39.862
		c-22.034,0-39.998,17.847-39.998,39.862v39.867C302,537.559,319.962,555.41,341.998,555.41z"/>
	<path d="M435,714.824c21.993,0,40-17.828,40-39.845v-39.862c0-22.017-18.007-39.863-40-39.863c-22.039,0-40,17.847-40,39.863
		v39.862C395,696.996,412.96,714.824,435,714.824z"/>
	<path d="M502.002,555.41c21.993,0,39.998-17.852,39.998-39.863v-39.866c0-22.015-18.005-39.862-39.998-39.862
		c-22.039,0-40.002,17.847-40.002,39.862v39.867C462,537.559,479.963,555.41,502.002,555.41z"/>
	<path d="M542,674.979c0,22.017,17.986,39.845,39.979,39.845c21.993,0,40.021-17.828,40.021-39.845v-39.862
		c0-22.017-18.027-39.863-40.021-39.863c-21.993,0-39.979,17.848-39.979,39.864V674.979z"/>
	<path d="M653.525,555.41c21.992,0,39.475-17.852,39.475-39.863v-39.866c0-22.015-17.481-39.862-39.475-39.862
		c-21.994,0-39.525,17.847-39.525,39.862v39.867C614,537.559,631.532,555.41,653.525,555.41z"/>
	<path d="M487.002,744.335c-22.04,0-40.002,17.851-40.002,39.867v39.863c0,21.991,17.963,39.844,40.002,39.844
		c21.993,0,39.998-17.853,39.998-39.844v-39.863C527,762.187,508.995,744.335,487.002,744.335z"/>
</g>
<g>
</g>
<g>
</g>
<g>
</g>
<g>
</g>
<g>
</g>
<g>
</g>
<g>
</g>
<g>
</g>
<g>
</g>
<g>
</g>
<g>
</g>
<g>
</g>
<g>
</g>
<g>
</g>
<g>
</g>
</svg>
